<svg xmlns="http://www.w3.org/2000/svg" xmlns:xlink="http://www.w3.org/1999/xlink" width="500" zoomAndPan="magnify" viewBox="0 0 375 374.999991" height="500" preserveAspectRatio="xMidYMid meet" version="1.0"><defs><g/><clipPath id="e534a895ed"><path d="M 15 120 L 134 120 L 134 262 L 15 262 Z M 15 120 " clip-rule="nonzero"/></clipPath><clipPath id="045a7ed3aa"><path d="M -16.59375 121.949219 L 160.480469 82.113281 L 195.378906 237.234375 L 18.304688 277.074219 Z M -16.59375 121.949219 " clip-rule="nonzero"/></clipPath><clipPath id="f08369b639"><path d="M -16.59375 121.949219 L 160.480469 82.113281 L 195.378906 237.234375 L 18.304688 277.074219 Z M -16.59375 121.949219 " clip-rule="nonzero"/></clipPath><clipPath id="8e9515d081"><path d="M 49 125 L 175 125 L 175 189 L 49 189 Z M 49 125 " clip-rule="nonzero"/></clipPath><clipPath id="ab226aff7f"><path d="M -16.59375 121.949219 L 160.480469 82.113281 L 195.378906 237.234375 L 18.304688 277.074219 Z M -16.59375 121.949219 " clip-rule="nonzero"/></clipPath><clipPath id="c53b098f0a"><path d="M -16.59375 121.949219 L 160.480469 82.113281 L 195.378906 237.234375 L 18.304688 277.074219 Z M -16.59375 121.949219 " clip-rule="nonzero"/></clipPath><clipPath id="aa19064890"><path d="M 145 105 L 168 105 L 168 128 L 145 128 Z M 145 105 " clip-rule="nonzero"/></clipPath><clipPath id="6509a19430"><path d="M -16.59375 121.949219 L 160.480469 82.113281 L 195.378906 237.234375 L 18.304688 277.074219 Z M -16.59375 121.949219 " clip-rule="nonzero"/></clipPath><clipPath id="5086ec415c"><path d="M -16.59375 121.949219 L 160.480469 82.113281 L 195.378906 237.234375 L 18.304688 277.074219 Z M -16.59375 121.949219 " clip-rule="nonzero"/></clipPath><clipPath id="43b87a40f8"><path d="M 121 89 L 135 89 L 135 103 L 121 103 Z M 121 89 " clip-rule="nonzero"/></clipPath><clipPath id="8ec9282ce1"><path d="M -16.59375 121.949219 L 160.480469 82.113281 L 195.378906 237.234375 L 18.304688 277.074219 Z M -16.59375 121.949219 " clip-rule="nonzero"/></clipPath><clipPath id="ffb641ac0d"><path d="M -16.59375 121.949219 L 160.480469 82.113281 L 195.378906 237.234375 L 18.304688 277.074219 Z M -16.59375 121.949219 " clip-rule="nonzero"/></clipPath><clipPath id="d274974a81"><path d="M 145 92 L 152 92 L 152 99 L 145 99 Z M 145 92 " clip-rule="nonzero"/></clipPath><clipPath id="c207dc8f9c"><path d="M -16.59375 121.949219 L 160.480469 82.113281 L 195.378906 237.234375 L 18.304688 277.074219 Z M -16.59375 121.949219 " clip-rule="nonzero"/></clipPath><clipPath id="e63bcdab4d"><path d="M -16.59375 121.949219 L 160.480469 82.113281 L 195.378906 237.234375 L 18.304688 277.074219 Z M -16.59375 121.949219 " clip-rule="nonzero"/></clipPath></defs><g clip-path="url(#e534a895ed)"><g clip-path="url(#045a7ed3aa)"><g clip-path="url(#f08369b639)"><path fill="#f3c93f" d="M 73.683594 140.90625 C 93.304688 127.015625 115.152344 120.542969 133.984375 121.46875 C 111.820312 117.070312 83.855469 123.617188 59.179688 141.078125 C 20.058594 168.78125 4.058594 213.417969 23.4375 240.785156 C 37.726562 260.953125 67.253906 266.09375 97.472656 256.304688 C 57.796875 255.910156 45.589844 241.230469 40.363281 233.832031 C 22.292969 208.324219 37.214844 166.714844 73.683594 140.90625 Z M 73.683594 140.90625 " fill-opacity="1" fill-rule="nonzero"/></g></g></g><g clip-path="url(#8e9515d081)"><g clip-path="url(#ab226aff7f)"><g clip-path="url(#c53b098f0a)"><path fill="#ffffff" d="M 169.574219 142.367188 C 165.917969 137.210938 161.019531 133.269531 155.269531 130.539062 C 136.335938 121.523438 108.089844 125.648438 83.773438 142.855469 C 65.921875 155.496094 54.003906 172.5 49.824219 188.902344 C 56.199219 175.511719 67.074219 162.480469 81.648438 152.167969 C 112.175781 130.5625 148.484375 128.132812 167.863281 144.980469 C 170.121094 146.945312 172.167969 149.15625 173.925781 151.640625 C 174.132812 151.933594 174.3125 152.246094 174.511719 152.539062 C 173.421875 148.917969 171.796875 145.503906 169.574219 142.367188 Z M 169.574219 142.367188 " fill-opacity="1" fill-rule="nonzero"/></g></g></g><g clip-path="url(#aa19064890)"><g clip-path="url(#6509a19430)"><g clip-path="url(#5086ec415c)"><path fill="#f1e7e1" d="M 167.515625 113.871094 C 159.574219 117.261719 158.617188 118.773438 158.953125 127.402344 C 155.558594 119.460938 154.046875 118.503906 145.417969 118.84375 C 153.359375 115.453125 154.316406 113.9375 153.980469 105.3125 C 157.375 113.261719 158.886719 114.21875 167.515625 113.871094 Z M 167.515625 113.871094 " fill-opacity="1" fill-rule="nonzero"/></g></g></g><g clip-path="url(#43b87a40f8)"><g clip-path="url(#8ec9282ce1)"><g clip-path="url(#ffb641ac0d)"><path fill="#ffffff" d="M 134.234375 94.597656 C 130.378906 96.707031 129.632812 97.886719 129.378906 102.273438 C 127.269531 98.417969 126.089844 97.671875 121.703125 97.417969 C 125.558594 95.308594 126.304688 94.128906 126.558594 89.742188 C 128.667969 93.597656 129.847656 94.34375 134.234375 94.597656 Z M 134.234375 94.597656 " fill-opacity="1" fill-rule="nonzero"/></g></g></g><g clip-path="url(#d274974a81)"><g clip-path="url(#c207dc8f9c)"><g clip-path="url(#e63bcdab4d)"><path fill="#f3c93f" d="M 151.679688 95.082031 C 149.753906 96.140625 149.378906 96.730469 149.246094 98.925781 C 148.1875 97 147.597656 96.625 145.402344 96.492188 C 147.328125 95.433594 147.703125 94.84375 147.835938 92.648438 C 148.894531 94.574219 149.484375 94.949219 151.679688 95.082031 Z M 151.679688 95.082031 " fill-opacity="1" fill-rule="nonzero"/></g></g></g><g fill="#ffffff" fill-opacity="1"><g transform="translate(62.255168, 225.877821)"><g><path d="M 53.226562 -41.5625 L 53.226562 -36.617188 L 20.570312 -36.617188 L 20.570312 -41.5625 Z M 63.617188 -27.144531 L 63.617188 -51.035156 L 42.976562 -51.035156 C 41.988281 -53.792969 40.503906 -57.679688 39.019531 -60.578125 L 28.769531 -58.105469 C 29.617188 -55.984375 30.679688 -53.367188 31.457031 -51.035156 L 9.96875 -51.035156 L 9.96875 -32.164062 C 9.96875 -22.40625 9.402344 -8.976562 1.695312 0 C 4.027344 1.203125 8.484375 5.019531 10.179688 7 C 17.8125 -1.765625 20.003906 -15.976562 20.5 -27.144531 Z M 30.960938 -6.078125 L 30.960938 -13.855469 L 54.996094 -13.855469 L 54.996094 -6.078125 Z M 20.921875 -23.257812 L 20.921875 6.007812 L 30.960938 6.007812 L 30.960938 3.179688 L 54.996094 3.179688 L 54.996094 6.007812 L 65.527344 6.007812 L 65.527344 -23.257812 Z M 20.921875 -23.257812 "/></g></g></g><g fill="#ffffff" fill-opacity="1"><g transform="translate(132.94264, 225.877821)"><g><path d="M 68.496094 -49.621094 L 50.824219 -49.621094 L 55.632812 -51.035156 C 54.851562 -53.792969 53.367188 -57.894531 51.957031 -61.074219 L 41.917969 -58.527344 C 42.976562 -55.84375 44.179688 -52.378906 44.886719 -49.621094 L 32.164062 -49.621094 L 32.164062 -40.714844 L 68.496094 -40.714844 Z M 14.914062 -20.074219 L 14.984375 -22.761719 L 22.621094 -22.761719 L 22.621094 -14.136719 C 21.699219 -16.539062 20.429688 -19.4375 19.226562 -21.84375 Z M 14.984375 -37.324219 C 15.691406 -35.273438 16.328125 -33.152344 16.683594 -31.527344 L 22.621094 -34.070312 L 22.621094 -30.820312 L 14.984375 -30.820312 Z M 22.621094 -35.484375 C 21.914062 -37.886719 20.710938 -41 19.582031 -43.472656 L 14.984375 -41.707031 L 14.984375 -44.179688 L 22.621094 -44.179688 Z M 62.417969 -2.261719 C 62.203125 -2.261719 62.0625 -2.332031 61.992188 -2.617188 C 61.921875 -2.898438 61.921875 -3.675781 61.921875 -5.160156 L 61.921875 -36.332031 L 36.402344 -36.332031 L 36.402344 -21.914062 C 36.402344 -15.410156 35.980469 -7 31.386719 -0.496094 C 31.457031 -1.203125 31.457031 -2.050781 31.457031 -2.898438 L 31.457031 -52.027344 L 22.054688 -52.027344 C 22.832031 -54.148438 23.679688 -56.550781 24.527344 -59.023438 L 14.277344 -60.578125 C 14.066406 -58.035156 13.570312 -54.851562 13.007812 -52.027344 L 6.148438 -52.027344 L 6.148438 -30.820312 L 1.695312 -30.820312 L 1.695312 -22.761719 L 6.148438 -22.761719 C 6.078125 -14.277344 5.441406 -4.3125 1.273438 2.542969 C 3.394531 3.464844 7.351562 6.007812 8.976562 7.492188 C 12.722656 1.34375 14.207031 -7.703125 14.703125 -16.117188 C 15.761719 -13.570312 16.683594 -11.027344 17.105469 -9.117188 L 22.621094 -11.59375 L 22.621094 -3.039062 C 22.621094 -2.261719 22.335938 -1.980469 21.628906 -1.980469 C 20.851562 -1.980469 18.660156 -1.910156 16.753906 -2.050781 C 17.882812 0.210938 19.085938 4.171875 19.296875 6.574219 C 23.328125 6.574219 26.226562 6.363281 28.558594 4.878906 C 29.617188 4.171875 30.324219 3.324219 30.75 2.191406 C 33.082031 3.464844 36.332031 5.65625 37.746094 7.070312 C 44.605469 -0.425781 45.804688 -12.792969 45.804688 -21.773438 L 45.804688 -27.496094 L 52.449219 -27.496094 L 52.449219 -4.59375 C 52.449219 0.847656 52.945312 2.617188 54.21875 4.101562 C 55.488281 5.441406 57.46875 6.148438 59.308594 6.148438 L 62.699219 6.148438 C 64.183594 6.148438 65.808594 5.796875 66.871094 4.878906 C 67.929688 3.957031 68.636719 2.6875 69.132812 0.917969 C 69.484375 -0.917969 69.839844 -5.371094 69.910156 -8.90625 C 67.859375 -9.683594 65.246094 -11.027344 63.6875 -12.371094 C 63.6875 -8.835938 63.617188 -6.007812 63.546875 -4.734375 C 63.40625 -3.464844 63.335938 -2.828125 63.195312 -2.542969 C 63.125 -2.332031 62.910156 -2.261719 62.769531 -2.261719 Z M 62.417969 -2.261719 "/></g></g></g><g fill="#ffffff" fill-opacity="1"><g transform="translate(203.630113, 225.877821)"><g><path d="M 26.082031 -49.621094 C 23.46875 -52.664062 17.742188 -57.042969 13.785156 -60.015625 L 7.28125 -53.367188 C 11.308594 -50.046875 16.753906 -45.3125 19.15625 -42.199219 Z M 22.691406 -13.148438 L 22.691406 -38.878906 L 2.402344 -38.878906 L 2.402344 -28.699219 L 12.160156 -28.699219 L 12.160156 -9.613281 C 12.160156 -6.363281 9.894531 -3.816406 8.058594 -2.617188 C 9.753906 -0.425781 12.230469 4.3125 13.007812 7 C 14.492188 5.089844 17.390625 2.757812 32.234375 -8.128906 C 31.171875 -10.25 29.617188 -14.703125 29.050781 -17.671875 Z M 68.707031 -38.808594 L 53.296875 -38.808594 L 53.296875 -60.085938 L 42.199219 -60.085938 L 42.199219 -38.808594 L 25.730469 -38.808594 L 25.730469 -28.0625 L 42.199219 -28.0625 L 42.199219 6.714844 L 53.296875 6.714844 L 53.296875 -28.0625 L 68.707031 -28.0625 Z M 68.707031 -38.808594 "/></g></g></g><g fill="#ffffff" fill-opacity="1"><g transform="translate(274.317585, 225.877821)"><g><path d="M 37.109375 -50.964844 C 35.0625 -53.792969 30.609375 -57.75 27.144531 -60.4375 L 20.359375 -54.925781 C 23.75 -51.957031 28.0625 -47.644531 29.832031 -44.816406 Z M 29.195312 -33.789062 C 27.496094 -29.757812 25.375 -25.871094 22.832031 -22.265625 C 22.125 -25.730469 21.488281 -29.617188 20.996094 -33.71875 L 41.210938 -35.910156 L 40.292969 -45.59375 L 20.074219 -43.402344 C 19.722656 -48.988281 19.582031 -54.710938 19.722656 -60.367188 L 9.1875 -60.367188 C 9.1875 -54.359375 9.402344 -48.28125 9.824219 -42.34375 L 1.414062 -41.421875 L 2.332031 -31.667969 L 10.746094 -32.585938 C 11.59375 -25.304688 12.863281 -18.449219 14.632812 -12.582031 C 10.601562 -8.765625 6.148438 -5.511719 1.414062 -2.96875 C 3.464844 -1.058594 7.070312 2.96875 8.554688 5.089844 C 12.015625 2.898438 15.410156 0.28125 18.660156 -2.6875 C 21.699219 2.757812 25.589844 6.007812 30.535156 6.007812 C 37.675781 6.007812 40.855469 3.039062 42.414062 -10.25 C 39.726562 -11.238281 36.191406 -13.570312 34 -15.90625 C 33.578125 -7.5625 32.800781 -4.242188 31.316406 -4.242188 C 29.476562 -4.242188 27.710938 -6.574219 26.15625 -10.53125 C 31.242188 -16.539062 35.554688 -23.398438 38.878906 -30.820312 Z M 52.589844 -53.015625 L 42.765625 -53.015625 L 42.765625 -13.855469 L 52.589844 -13.855469 Z M 56.195312 -59.730469 L 56.195312 -4.808594 C 56.195312 -3.605469 55.773438 -3.25 54.5 -3.25 C 53.226562 -3.25 49.199219 -3.25 45.59375 -3.394531 C 46.9375 -0.566406 48.421875 3.957031 48.773438 6.785156 C 54.78125 6.785156 59.234375 6.433594 62.277344 4.808594 C 65.316406 3.179688 66.234375 0.496094 66.234375 -4.808594 L 66.234375 -59.730469 Z M 56.195312 -59.730469 "/></g></g></g><g fill="#ffffff" fill-opacity="1"><g transform="translate(145.184174, 258.532161)"><g><path d="M 8.8125 -4.09375 C 8.8125 -4.894531 8.59375 -5.507812 8.15625 -5.9375 C 7.71875 -6.375 6.925781 -6.796875 5.78125 -7.203125 C 4.644531 -7.609375 3.773438 -8.035156 3.171875 -8.484375 C 2.566406 -8.929688 2.113281 -9.441406 1.8125 -10.015625 C 1.507812 -10.585938 1.359375 -11.242188 1.359375 -11.984375 C 1.359375 -13.265625 1.785156 -14.316406 2.640625 -15.140625 C 3.503906 -15.972656 4.628906 -16.390625 6.015625 -16.390625 C 6.960938 -16.390625 7.804688 -16.175781 8.546875 -15.75 C 9.285156 -15.332031 9.851562 -14.742188 10.25 -13.984375 C 10.65625 -13.234375 10.859375 -12.40625 10.859375 -11.5 L 8.8125 -11.5 C 8.8125 -12.5 8.566406 -13.269531 8.078125 -13.8125 C 7.597656 -14.363281 6.910156 -14.640625 6.015625 -14.640625 C 5.191406 -14.640625 4.550781 -14.410156 4.09375 -13.953125 C 3.644531 -13.492188 3.421875 -12.847656 3.421875 -12.015625 C 3.421875 -11.335938 3.664062 -10.769531 4.15625 -10.3125 C 4.644531 -9.851562 5.398438 -9.441406 6.421875 -9.078125 C 8.015625 -8.546875 9.148438 -7.894531 9.828125 -7.125 C 10.515625 -6.351562 10.859375 -5.347656 10.859375 -4.109375 C 10.859375 -2.796875 10.429688 -1.742188 9.578125 -0.953125 C 8.734375 -0.171875 7.578125 0.21875 6.109375 0.21875 C 5.171875 0.21875 4.300781 0.015625 3.5 -0.390625 C 2.707031 -0.804688 2.082031 -1.382812 1.625 -2.125 C 1.164062 -2.875 0.9375 -3.726562 0.9375 -4.6875 L 2.984375 -4.6875 C 2.984375 -3.6875 3.265625 -2.90625 3.828125 -2.34375 C 4.390625 -1.789062 5.148438 -1.515625 6.109375 -1.515625 C 7.003906 -1.515625 7.675781 -1.742188 8.125 -2.203125 C 8.582031 -2.671875 8.8125 -3.300781 8.8125 -4.09375 Z M 8.8125 -4.09375 "/></g></g></g><g fill="#ffffff" fill-opacity="1"><g transform="translate(162.021374, 258.532161)"><g><path d="M 9.5 -7.46875 L 3.78125 -7.46875 L 3.78125 -1.75 L 10.4375 -1.75 L 10.4375 0 L 1.75 0 L 1.75 -16.171875 L 10.328125 -16.171875 L 10.328125 -14.421875 L 3.78125 -14.421875 L 3.78125 -9.21875 L 9.5 -9.21875 Z M 9.5 -7.46875 "/></g></g></g><g fill="#ffffff" fill-opacity="1"><g transform="translate(178.369889, 258.532161)"><g><path d="M 11.203125 -14.421875 L 6.9375 -14.421875 L 6.9375 0 L 4.90625 0 L 4.90625 -14.421875 L 0.671875 -14.421875 L 0.671875 -16.171875 L 11.203125 -16.171875 Z M 11.203125 -14.421875 "/></g></g></g><g fill="#ffffff" fill-opacity="1"><g transform="translate(195.262618, 258.532161)"><g/></g></g><g fill="#ffffff" fill-opacity="1"><g transform="translate(205.524775, 258.532161)"><g><path d="M 8.8125 -4.09375 C 8.8125 -4.894531 8.59375 -5.507812 8.15625 -5.9375 C 7.71875 -6.375 6.925781 -6.796875 5.78125 -7.203125 C 4.644531 -7.609375 3.773438 -8.035156 3.171875 -8.484375 C 2.566406 -8.929688 2.113281 -9.441406 1.8125 -10.015625 C 1.507812 -10.585938 1.359375 -11.242188 1.359375 -11.984375 C 1.359375 -13.265625 1.785156 -14.316406 2.640625 -15.140625 C 3.503906 -15.972656 4.628906 -16.390625 6.015625 -16.390625 C 6.960938 -16.390625 7.804688 -16.175781 8.546875 -15.75 C 9.285156 -15.332031 9.851562 -14.742188 10.25 -13.984375 C 10.65625 -13.234375 10.859375 -12.40625 10.859375 -11.5 L 8.8125 -11.5 C 8.8125 -12.5 8.566406 -13.269531 8.078125 -13.8125 C 7.597656 -14.363281 6.910156 -14.640625 6.015625 -14.640625 C 5.191406 -14.640625 4.550781 -14.410156 4.09375 -13.953125 C 3.644531 -13.492188 3.421875 -12.847656 3.421875 -12.015625 C 3.421875 -11.335938 3.664062 -10.769531 4.15625 -10.3125 C 4.644531 -9.851562 5.398438 -9.441406 6.421875 -9.078125 C 8.015625 -8.546875 9.148438 -7.894531 9.828125 -7.125 C 10.515625 -6.351562 10.859375 -5.347656 10.859375 -4.109375 C 10.859375 -2.796875 10.429688 -1.742188 9.578125 -0.953125 C 8.734375 -0.171875 7.578125 0.21875 6.109375 0.21875 C 5.171875 0.21875 4.300781 0.015625 3.5 -0.390625 C 2.707031 -0.804688 2.082031 -1.382812 1.625 -2.125 C 1.164062 -2.875 0.9375 -3.726562 0.9375 -4.6875 L 2.984375 -4.6875 C 2.984375 -3.6875 3.265625 -2.90625 3.828125 -2.34375 C 4.390625 -1.789062 5.148438 -1.515625 6.109375 -1.515625 C 7.003906 -1.515625 7.675781 -1.742188 8.125 -2.203125 C 8.582031 -2.671875 8.8125 -3.300781 8.8125 -4.09375 Z M 8.8125 -4.09375 "/></g></g></g><g fill="#ffffff" fill-opacity="1"><g transform="translate(222.361973, 258.532161)"><g><path d="M 9.28125 -4.21875 L 3.828125 -4.21875 L 2.5625 0 L 0.484375 0 L 5.6875 -16.171875 L 7.4375 -16.171875 L 12.65625 0 L 10.5625 0 Z M 4.359375 -5.96875 L 8.765625 -5.96875 L 6.546875 -13.328125 Z M 4.359375 -5.96875 "/></g></g></g><g fill="#ffffff" fill-opacity="1"><g transform="translate(240.52084, 258.532161)"><g><path d="M 3.859375 0 L 1.828125 0 L 1.828125 -16.171875 L 3.859375 -16.171875 Z M 3.859375 0 "/></g></g></g><g fill="#ffffff" fill-opacity="1"><g transform="translate(251.260575, 258.532161)"><g><path d="M 3.78125 -1.75 L 10.125 -1.75 L 10.125 0 L 1.75 0 L 1.75 -16.171875 L 3.78125 -16.171875 Z M 3.78125 -1.75 "/></g></g></g></svg>